<svg xmlns="http://www.w3.org/2000/svg" width="265.173" height="61.364" viewBox="0 0 265.173 61.364">
  <g id="bottom_logo" transform="translate(-135.827 -53.949)">
    <text id="PREPARE_TEST_" data-name="PREPARE TEST " transform="translate(205 93)" fill="#fff" font-size="26" font-family="Poppins"><tspan x="0" y="0">PREPARE TEST </tspan></text>
    <g id="Group_210" data-name="Group 210" transform="translate(135.827 53.95)">
      <g id="Group_208" data-name="Group 208" transform="translate(0 28.105)">
        <path id="Path_1604" data-name="Path 1604" d="M253.16,263.444s-6.682-11.325-22.676-3.692l5.644-13.463-11.1,17.074S241.3,253.924,253.16,263.444Z" transform="translate(-225.024 -244.449)" fill="#fff"/>
        <path id="Path_1605" data-name="Path 1605" d="M294.251,263.444s6.68-11.325,22.677-3.692l-5.646-13.463,11.1,17.074S306.106,253.924,294.251,263.444Z" transform="translate(-263.17 -244.449)" fill="#fff"/>
        <path id="Path_1606" data-name="Path 1606" d="M247.266,244.117l-5.014,11.633s11.254-7.471,20.919,4.695V244.011S254.607,239.848,247.266,244.117Z" transform="translate(-234.517 -242.192)" fill="#fff"/>
        <path id="Path_1607" data-name="Path 1607" d="M309,244.117l5.016,11.633s-11.258-7.471-20.919,4.695V244.011S301.66,239.848,309,244.117Z" transform="translate(-262.534 -242.192)" fill="#fff"/>
      </g>
      <path id="Path_1608" data-name="Path 1608" d="M276.307,220.7l-.51,1.205h-1.03l-.515-1.2a13.461,13.461,0,0,0-11.756,9.254c5.4-1.864,10.749.617,11.785,1.142l-.276-.344.721-8.362h1.109l.721,8.362-.354.44h.025s5.873-3.259,11.837-1.276A13.468,13.468,0,0,0,276.307,220.7Z" transform="translate(-245.672 -202.242)" fill="#fff"/>
      <path id="Path_1609" data-name="Path 1609" d="M289.509,195.358,283.15,191.9l-6.487,3.59,2.367,1.289a4.668,4.668,0,1,0,8.064-.079Z" transform="translate(-253.478 -186.372)" fill="#fff"/>
      <g id="Group_209" data-name="Group 209" transform="translate(9.298 0)">
        <path id="Path_1610" data-name="Path 1610" d="M287.38,301.1H275.232a1.8,1.8,0,0,1,0-3.6H287.38a1.8,1.8,0,0,1,0,3.6Z" transform="translate(-260.996 -244.56)" fill="#fff"/>
        <path id="Path_1611" data-name="Path 1611" d="M287.424,311.85h-8.21a1.8,1.8,0,1,1,0-3.6h8.21a1.8,1.8,0,0,1,0,3.6Z" transform="translate(-263.19 -250.486)" fill="#fff"/>
        <path id="Path_1612" data-name="Path 1612" d="M248.614,199.9a17.429,17.429,0,0,1,34.858,0,18.437,18.437,0,0,1-1.749,7.237,15.289,15.289,0,0,1,2.578,1.306,21.294,21.294,0,0,0,2.051-8.543,20.309,20.309,0,1,0-40.618,0,21.318,21.318,0,0,0,2.056,8.555,14.28,14.28,0,0,1,2.574-1.315A18.435,18.435,0,0,1,248.614,199.9Z" transform="translate(-245.734 -179.594)" fill="#fff"/>
        <path id="Path_1613" data-name="Path 1613" d="M284.9,283.542H273.348a16.05,16.05,0,0,0-.471-2.455,17.544,17.544,0,0,0-3.408-1.129,14.082,14.082,0,0,1,1.078,5.024,1.44,1.44,0,0,0,1.44,1.441h14.272a1.44,1.44,0,0,0,1.439-1.441,14.091,14.091,0,0,1,1.077-5.024,17.548,17.548,0,0,0-3.409,1.13A16.187,16.187,0,0,0,284.9,283.542Z" transform="translate(-258.813 -234.897)" fill="#fff"/>
      </g>
    </g>
  </g>
</svg>
