<svg xmlns="http://www.w3.org/2000/svg" width="25.561" height="25.561" viewBox="0 0 25.561 25.561">
  <path id="Icon_testimonial_arrow-circle-left" d="M13.343.563a12.78,12.78,0,1,0,12.78,12.78A12.778,12.778,0,0,0,13.343.563Zm1.489,7.4-3.891,3.731h9.41a1.234,1.234,0,0,1,1.237,1.237v.825a1.234,1.234,0,0,1-1.237,1.237h-9.41l3.891,3.731a1.238,1.238,0,0,1,.021,1.768l-.567.562a1.232,1.232,0,0,1-1.747,0L5.7,14.219a1.232,1.232,0,0,1,0-1.747l6.838-6.844a1.232,1.232,0,0,1,1.747,0l.567.562a1.244,1.244,0,0,1-.021,1.773Z" transform="translate(-0.563 -0.563)" opacity="0.3"/>
</svg>
