<svg xmlns="http://www.w3.org/2000/svg" width="29.16" height="29.161" viewBox="0 0 29.16 29.161">
  <path id="Icon_awesome-pen-fancy" data-name="Icon awesome-pen-fancy" d="M4.51,16.114a1.823,1.823,0,0,0-1.153,1.153L0,27.338l.267.267,5.29-5.29a1.753,1.753,0,0,1-.089-.444,1.823,1.823,0,1,1,1.823,1.823,1.753,1.753,0,0,1-.444-.089l-5.29,5.29.267.267L11.893,25.8a1.822,1.822,0,0,0,1.153-1.153l1.883-4.788L9.3,14.231ZM21.03,1.613,10.6,12.975l5.573,5.573L27.536,8.119C32.373,3.843,25.272-3.186,21.03,1.613Z" transform="translate(0 0)" fill="#fff"/>
</svg>
