<svg xmlns="http://www.w3.org/2000/svg" width="37.311" height="37.377" viewBox="0 0 37.311 37.377">
  <path id="Icon_feather-phone-call" data-name="Icon feather-phone-call" d="M24.322,8.04A8.175,8.175,0,0,1,30.78,14.5m-6.458-13a14.715,14.715,0,0,1,13,12.982M35.685,27.529v4.905a3.27,3.27,0,0,1-3.564,3.27,32.357,32.357,0,0,1-14.11-5.019,31.883,31.883,0,0,1-9.81-9.81A32.357,32.357,0,0,1,3.181,6.7,3.27,3.27,0,0,1,6.435,3.135H11.34a3.27,3.27,0,0,1,3.27,2.812,20.993,20.993,0,0,0,1.145,4.594,3.27,3.27,0,0,1-.736,3.45l-2.076,2.076a26.16,26.16,0,0,0,9.81,9.81L24.829,23.8a3.27,3.27,0,0,1,3.45-.736,20.993,20.993,0,0,0,4.594,1.145A3.27,3.27,0,0,1,35.685,27.529Z" transform="translate(-1.667 0.156)" fill="none" stroke="#ff4f01" stroke-linecap="round" stroke-linejoin="round" stroke-width="3"/>
</svg>
