<svg xmlns="http://www.w3.org/2000/svg" width="35.966" height="25.123" viewBox="0 0 35.966 25.123">
  <path id="Icon_metro-books" data-name="Icon metro-books" d="M9.9,8.571H3.618A1.05,1.05,0,0,0,2.571,9.618v23.03a1.05,1.05,0,0,0,1.047,1.047H9.9a1.05,1.05,0,0,0,1.047-1.047V9.618A1.05,1.05,0,0,0,9.9,8.571ZM8.852,14.852H4.665V12.759H8.852v2.094ZM20.367,8.571H14.086A1.05,1.05,0,0,0,13.04,9.618v23.03a1.05,1.05,0,0,0,1.047,1.047h6.281a1.05,1.05,0,0,0,1.047-1.047V9.618a1.05,1.05,0,0,0-1.047-1.047ZM19.32,14.852H15.133V12.759H19.32ZM27.6,10.19l-5.609,2.826a1.05,1.05,0,0,0-.464,1.406l9.421,18.7a1.05,1.05,0,0,0,1.406.464l5.609-2.826a1.05,1.05,0,0,0,.464-1.406l-9.421-18.7A1.05,1.05,0,0,0,27.6,10.19Zm5.329,22.458A1.047,1.047,0,1,1,31.882,31.6,1.047,1.047,0,0,1,32.929,32.648Z" transform="translate(-2.571 -8.572)" fill="#fff"/>
</svg>
