<svg xmlns="http://www.w3.org/2000/svg" width="25.561" height="25.561" viewBox="0 0 25.561 25.561">
  <path id="Icon_testimonial_arrow-circle-right" d="M13.343.563A12.78,12.78,0,1,1,.563,13.343,12.778,12.778,0,0,1,13.343.563Zm-1.489,7.4,3.891,3.731H6.334A1.234,1.234,0,0,0,5.1,12.931v.825a1.234,1.234,0,0,0,1.237,1.237h9.41l-3.891,3.731a1.238,1.238,0,0,0-.021,1.768l.567.562a1.232,1.232,0,0,0,1.747,0l6.838-6.833a1.232,1.232,0,0,0,0-1.747L14.147,5.628a1.232,1.232,0,0,0-1.747,0l-.567.562a1.244,1.244,0,0,0,.021,1.773Z" transform="translate(-0.563 -0.563)"/>
</svg>
