<svg xmlns="http://www.w3.org/2000/svg" width="21" height="22" viewBox="0 0 21 22">
  <g id="Insta" transform="translate(-0.336 0.184)">
    <g id="Path_3" data-name="Path 3" transform="translate(0.336 -0.184)" fill="none">
      <path d="M10.5,0A10.759,10.759,0,0,1,21,11,10.759,10.759,0,0,1,10.5,22,10.759,10.759,0,0,1,0,11,10.759,10.759,0,0,1,10.5,0Z" stroke="none"/>
      <path d="M 10.5 1 C 5.261679649353027 1 1 5.485979080200195 1 11 C 1 16.51401901245117 5.261679649353027 21 10.5 21 C 15.73831939697266 21 20 16.51401901245117 20 11 C 20 5.485979080200195 15.73831939697266 1 10.5 1 M 10.5 0 C 16.29899024963379 0 21 4.924869537353516 21 11 C 21 17.07513046264648 16.29899024963379 22 10.5 22 C 4.701009750366211 22 0 17.07513046264648 0 11 C 0 4.924869537353516 4.701009750366211 0 10.5 0 Z" stroke="none" fill="#fff"/>
    </g>
    <path id="Icon_simple-instagram" data-name="Icon simple-instagram" d="M4.6,0C3.349,0,3.193.006,2.7.028A3.391,3.391,0,0,0,1.586.241a2.252,2.252,0,0,0-.815.53,2.244,2.244,0,0,0-.53.815A3.381,3.381,0,0,0,.028,2.7C0,3.193,0,3.349,0,4.6S.006,6,.028,6.494A3.393,3.393,0,0,0,.241,7.61a2.255,2.255,0,0,0,.53.815,2.249,2.249,0,0,0,.815.53A3.4,3.4,0,0,0,2.7,9.169c.49.023.646.028,1.9.028S6,9.191,6.494,9.169A3.4,3.4,0,0,0,7.61,8.955,2.35,2.35,0,0,0,8.955,7.61a3.393,3.393,0,0,0,.214-1.116C9.192,6,9.2,5.847,9.2,4.6s-.006-1.405-.028-1.9a3.4,3.4,0,0,0-.214-1.116,2.257,2.257,0,0,0-.53-.815A2.24,2.24,0,0,0,7.61.241,3.383,3.383,0,0,0,6.494.028C6,0,5.847,0,4.6,0Zm0,.828c1.227,0,1.374.006,1.858.027a2.533,2.533,0,0,1,.853.159,1.513,1.513,0,0,1,.873.873,2.539,2.539,0,0,1,.158.853c.022.485.027.631.027,1.858S8.362,5.972,8.34,6.457a2.588,2.588,0,0,1-.161.853,1.46,1.46,0,0,1-.344.53,1.435,1.435,0,0,1-.529.343,2.557,2.557,0,0,1-.856.158c-.488.022-.632.027-1.862.027S3.213,8.362,2.725,8.34a2.607,2.607,0,0,1-.857-.161,1.424,1.424,0,0,1-.528-.344,1.4,1.4,0,0,1-.345-.529,2.61,2.61,0,0,1-.161-.856C.817,5.966.81,5.817.81,4.592S.817,3.218.834,2.73a2.607,2.607,0,0,1,.161-.856,1.363,1.363,0,0,1,.345-.529A1.36,1.36,0,0,1,1.868,1,2.545,2.545,0,0,1,2.719.839C3.208.822,3.351.816,4.581.816L4.6.828Zm0,1.409A2.361,2.361,0,1,0,6.959,4.6,2.361,2.361,0,0,0,4.6,2.237Zm0,3.894A1.533,1.533,0,1,1,6.131,4.6,1.532,1.532,0,0,1,4.6,6.131ZM7.6,2.144a.552.552,0,1,1-.552-.551A.552.552,0,0,1,7.6,2.144Z" transform="translate(6.113 6.113)" fill="#fff"/>
  </g>
</svg>
