<svg xmlns="http://www.w3.org/2000/svg" width="46" height="46" viewBox="0 0 46 46">
  <g id="insta_footer" transform="translate(-556 -5191)">
    <g id="Ellipse_52" data-name="Ellipse 52" transform="translate(556 5191)" fill="none" stroke="#ff4f01" stroke-width="2">
      <circle cx="23" cy="23" r="23" stroke="none"/>
      <circle cx="23" cy="23" r="22" fill="none"/>
    </g>
    <path id="Icon_simple-instagram" data-name="Icon simple-instagram" d="M9.778,0C7.122,0,6.79.012,5.747.059A7.21,7.21,0,0,0,3.374.513,4.789,4.789,0,0,0,1.641,1.641,4.771,4.771,0,0,0,.513,3.374,7.189,7.189,0,0,0,.059,5.747C.01,6.79,0,7.122,0,9.778s.012,2.988.059,4.031a7.215,7.215,0,0,0,.455,2.374,4.8,4.8,0,0,0,1.128,1.732,4.782,4.782,0,0,0,1.732,1.128,7.219,7.219,0,0,0,2.374.455c1.043.049,1.375.059,4.031.059s2.988-.012,4.031-.059a7.236,7.236,0,0,0,2.374-.455,5,5,0,0,0,2.86-2.86,7.215,7.215,0,0,0,.455-2.374c.049-1.043.059-1.375.059-4.031S19.544,6.79,19.5,5.747a7.232,7.232,0,0,0-.455-2.374,4.8,4.8,0,0,0-1.128-1.732A4.764,4.764,0,0,0,16.183.513,7.194,7.194,0,0,0,13.809.059C12.766.01,12.435,0,9.778,0Zm0,1.76c2.61,0,2.921.013,3.952.058a5.387,5.387,0,0,1,1.815.338A3.218,3.218,0,0,1,17.4,4.012a5.4,5.4,0,0,1,.337,1.815c.046,1.032.057,1.341.057,3.952s-.012,2.921-.06,3.952a5.5,5.5,0,0,1-.343,1.815,3.1,3.1,0,0,1-.733,1.126,3.051,3.051,0,0,1-1.125.73,5.438,5.438,0,0,1-1.821.337c-1.038.046-1.344.057-3.959.057s-2.922-.012-3.959-.06a5.545,5.545,0,0,1-1.822-.343,3.028,3.028,0,0,1-1.124-.733,2.969,2.969,0,0,1-.733-1.125,5.549,5.549,0,0,1-.342-1.821c-.037-1.027-.05-1.344-.05-3.947s.013-2.922.05-3.961a5.543,5.543,0,0,1,.342-1.82,2.9,2.9,0,0,1,.733-1.125,2.892,2.892,0,0,1,1.124-.732,5.412,5.412,0,0,1,1.81-.343c1.039-.037,1.345-.049,3.959-.049l.037.024Zm0,3A5.021,5.021,0,1,0,14.8,9.778,5.021,5.021,0,0,0,9.778,4.757Zm0,8.281a3.259,3.259,0,1,1,3.259-3.259A3.259,3.259,0,0,1,9.778,13.038Zm6.393-8.479A1.173,1.173,0,1,1,15,3.387,1.174,1.174,0,0,1,16.172,4.559Z" transform="translate(569 5204)" fill="#ff4f01"/>
  </g>
</svg>
