<svg xmlns="http://www.w3.org/2000/svg" width="76" height="76" viewBox="0 0 76 76">
  <g id="Notfication" transform="translate(-398 -1182)">
    <g id="Ellipse_71" data-name="Ellipse 71" transform="translate(398 1182)" fill="none" stroke="#ff6927" stroke-width="1">
      <circle cx="38" cy="38" r="38" stroke="none"/>
      <circle cx="38" cy="38" r="37.5" fill="none"/>
    </g>
    <g id="Icon_ionic-ios-notifications-outline" data-name="Icon ionic-ios-notifications-outline" transform="translate(414.225 1198.07)">
      <path id="Path_1632" data-name="Path 1632" d="M22.093,28.336a1.187,1.187,0,0,0-1.164.935,2.3,2.3,0,0,1-.458,1,1.733,1.733,0,0,1-1.476.541,1.762,1.762,0,0,1-1.476-.541,2.3,2.3,0,0,1-.458-1,1.187,1.187,0,0,0-1.164-.935h0a1.2,1.2,0,0,0-1.164,1.458,4.1,4.1,0,0,0,4.263,3.4,4.089,4.089,0,0,0,4.263-3.4,1.2,1.2,0,0,0-1.164-1.458Z" transform="translate(2.41 7.419)" fill="#ff6927"/>
      <path id="Path_1633" data-name="Path 1633" d="M35.715,31.1c-1.412-1.861-4.19-2.952-4.19-11.287,0-8.554-3.777-11.993-7.3-12.818-.33-.083-.568-.193-.568-.541V6.186a2.249,2.249,0,0,0-2.2-2.255H21.4a2.249,2.249,0,0,0-2.2,2.255v.266c0,.339-.238.458-.568.541-3.53.834-7.3,4.263-7.3,12.818,0,8.334-2.778,9.416-4.19,11.287A1.82,1.82,0,0,0,8.6,34.013H34.285A1.821,1.821,0,0,0,35.715,31.1Zm-3.576.532H10.758a.4.4,0,0,1-.3-.669A11.108,11.108,0,0,0,12.381,27.9a20.778,20.778,0,0,0,1.311-8.087c0-3.42.642-6.1,1.916-7.958a5.883,5.883,0,0,1,3.548-2.531,3.213,3.213,0,0,0,1.705-.963.725.725,0,0,1,1.091-.018,3.322,3.322,0,0,0,1.724.981,5.883,5.883,0,0,1,3.548,2.531c1.274,1.861,1.916,4.538,1.916,7.958A20.778,20.778,0,0,0,30.453,27.9a11.234,11.234,0,0,0,1.971,3.108A.379.379,0,0,1,32.14,31.629Z" transform="translate(0)" fill="#ff6927"/>
    </g>
  </g>
</svg>
