<svg xmlns="http://www.w3.org/2000/svg" width="110.999" height="79.774" viewBox="0 0 110.999 79.774">
  <g id="quote_begining" transform="translate(-447 -4991.726)">
    <path id="Union_1" data-name="Union 1" d="M-74.339,248.594l-.1.134s-.02-.505-.007-1.426q-.046-.758-.046-1.527a25.131,25.131,0,0,1,.454-4.769c1.43-13,7.7-38.9,34.62-50.006-5.708,9.227-14.225,20.511-14.859,30.232a25.111,25.111,0,0,1,4.784-.457,25,25,0,0,1,25,25,25,25,0,0,1-25,25A25,25,0,0,1-74.339,248.594Z" transform="translate(582.496 4800.725)" fill="#ff4f01"/>
    <path id="Union_4" data-name="Union 4" d="M-74.339,248.594l-.1.134s-.02-.505-.007-1.426q-.046-.758-.046-1.527a25.131,25.131,0,0,1,.454-4.769c1.43-13,7.7-38.9,34.62-50.006-5.708,9.227-14.225,20.511-14.859,30.232a25.111,25.111,0,0,1,4.784-.457,25,25,0,0,1,25,25,25,25,0,0,1-25,25A25,25,0,0,1-74.339,248.594Z" transform="translate(521.496 4800.725)" fill="#ff4f01"/>
  </g>
</svg>
