<svg xmlns="http://www.w3.org/2000/svg" xmlns:xlink="http://www.w3.org/1999/xlink" width="123.471" height="18.636" viewBox="0 0 123.471 18.636">
  <defs>
    <clipPath id="clip-path">
      <rect width="123.471" height="18.636" fill="none"/>
    </clipPath>
  </defs>
  <g id="stars" clip-path="url(#clip-path)">
    <g transform="translate(-872.265 -4273.684)">
      <path id="Icon_awesome-star" data-name="Icon awesome-star" d="M10.132.647,7.756,5.466l-5.317.775a1.165,1.165,0,0,0-.644,1.987l3.847,3.749-.91,5.3A1.164,1.164,0,0,0,6.42,18.5L11.177,16l4.757,2.5a1.165,1.165,0,0,0,1.689-1.226l-.91-5.3,3.847-3.749a1.165,1.165,0,0,0-.644-1.987L14.6,5.466,12.221.647a1.166,1.166,0,0,0-2.089,0Z" transform="translate(870.823 4273.685)" fill="#ffd134"/>
    </g>
    <g transform="translate(-846.265 -4273.684)">
      <path id="Icon_awesome-star-2" data-name="Icon awesome-star" d="M10.132.647,7.756,5.466l-5.317.775a1.165,1.165,0,0,0-.644,1.987l3.847,3.749-.91,5.3A1.164,1.164,0,0,0,6.42,18.5L11.177,16l4.757,2.5a1.165,1.165,0,0,0,1.689-1.226l-.91-5.3,3.847-3.749a1.165,1.165,0,0,0-.644-1.987L14.6,5.466,12.221.647a1.166,1.166,0,0,0-2.089,0Z" transform="translate(870.823 4273.685)" fill="#ffd134"/>
    </g>
    <g transform="translate(-820.265 -4273.684)">
      <path id="Icon_awesome-star-3" data-name="Icon awesome-star" d="M10.132.647,7.756,5.466l-5.317.775a1.165,1.165,0,0,0-.644,1.987l3.847,3.749-.91,5.3A1.164,1.164,0,0,0,6.42,18.5L11.177,16l4.757,2.5a1.165,1.165,0,0,0,1.689-1.226l-.91-5.3,3.847-3.749a1.165,1.165,0,0,0-.644-1.987L14.6,5.466,12.221.647a1.166,1.166,0,0,0-2.089,0Z" transform="translate(870.823 4273.685)" fill="#ffd134"/>
    </g>
    <g transform="translate(-794.265 -4273.684)">
      <path id="Icon_awesome-star-4" data-name="Icon awesome-star" d="M10.132.647,7.756,5.466l-5.317.775a1.165,1.165,0,0,0-.644,1.987l3.847,3.749-.91,5.3A1.164,1.164,0,0,0,6.42,18.5L11.177,16l4.757,2.5a1.165,1.165,0,0,0,1.689-1.226l-.91-5.3,3.847-3.749a1.165,1.165,0,0,0-.644-1.987L14.6,5.466,12.221.647a1.166,1.166,0,0,0-2.089,0Z" transform="translate(870.823 4273.685)" fill="#ffd134"/>
    </g>
    <g transform="translate(-768.265 -4273.684)">
      <path id="Icon_awesome-star-5" data-name="Icon awesome-star" d="M10.132.647,7.756,5.466l-5.317.775a1.165,1.165,0,0,0-.644,1.987l3.847,3.749-.91,5.3A1.164,1.164,0,0,0,6.42,18.5L11.177,16l4.757,2.5a1.165,1.165,0,0,0,1.689-1.226l-.91-5.3,3.847-3.749a1.165,1.165,0,0,0-.644-1.987L14.6,5.466,12.221.647a1.166,1.166,0,0,0-2.089,0Z" transform="translate(870.823 4273.685)" fill="#ffd134"/>
    </g>
  </g>
</svg>
