<svg xmlns="http://www.w3.org/2000/svg" width="22" height="22" viewBox="0 0 22 22">
  <g id="T" transform="translate(-0.081 0.184)">
    <g id="Group_25" data-name="Group 25" transform="translate(0 0)">
      <g id="Ellipse_51" data-name="Ellipse 51" transform="translate(0.081 -0.184)" fill="none" stroke="#fff" stroke-width="1">
        <circle cx="11" cy="11" r="11" stroke="none"/>
        <circle cx="11" cy="11" r="10.5" fill="none"/>
      </g>
    </g>
    <path id="Icon_awesome-twitter" data-name="Icon awesome-twitter" d="M7.21,5.007c.005.071.005.143.005.214A4.654,4.654,0,0,1,2.529,9.908,4.654,4.654,0,0,1,0,9.168a3.407,3.407,0,0,0,.4.02,3.3,3.3,0,0,0,2.045-.7A1.65,1.65,0,0,1,.9,7.343a2.077,2.077,0,0,0,.311.025,1.742,1.742,0,0,0,.433-.056A1.647,1.647,0,0,1,.326,5.7v-.02a1.659,1.659,0,0,0,.744.209,1.65,1.65,0,0,1-.51-2.2,4.682,4.682,0,0,0,3.4,1.724,1.859,1.859,0,0,1-.041-.377A1.649,1.649,0,0,1,6.767,3.9a3.243,3.243,0,0,0,1.045-.4,1.643,1.643,0,0,1-.724.908,3.3,3.3,0,0,0,.948-.255A3.541,3.541,0,0,1,7.21,5.007Z" transform="translate(6.797 4.171)" fill="#fff"/>
  </g>
</svg>
