<svg xmlns="http://www.w3.org/2000/svg" width="46" height="46" viewBox="0 0 46 46">
  <g id="twitter_footer" transform="translate(-489 -5191)">
    <g id="Group_25" data-name="Group 25" transform="translate(52)">
      <g id="Ellipse_51" data-name="Ellipse 51" transform="translate(437 5191)" fill="none" stroke="#ff4f01" stroke-width="2">
        <circle cx="23" cy="23" r="23" stroke="none"/>
        <circle cx="23" cy="23" r="22" fill="none"/>
      </g>
    </g>
    <path id="Icon_awesome-twitter" data-name="Icon awesome-twitter" d="M15.333,6.84c.011.152.011.3.011.455a9.9,9.9,0,0,1-9.965,9.965A9.9,9.9,0,0,1,0,15.688a7.246,7.246,0,0,0,.846.043,7.015,7.015,0,0,0,4.348-1.5,3.509,3.509,0,0,1-3.275-2.429,4.417,4.417,0,0,0,.661.054,3.7,3.7,0,0,0,.922-.119A3.5,3.5,0,0,1,.694,8.3V8.26a3.527,3.527,0,0,0,1.583.445A3.508,3.508,0,0,1,1.193,4.021,9.956,9.956,0,0,0,8.415,7.686a3.954,3.954,0,0,1-.087-.8,3.506,3.506,0,0,1,6.062-2.4,6.9,6.9,0,0,0,2.223-.846,3.493,3.493,0,0,1-1.54,1.93,7.022,7.022,0,0,0,2.017-.542A7.529,7.529,0,0,1,15.333,6.84Z" transform="translate(503.455 5203.679)" fill="#ff4f01"/>
  </g>
</svg>
