<?xml version="1.0" encoding="iso-8859-1"?>
<!-- Generator: Adobe Illustrator 23.0.1, SVG Export Plug-In . SVG Version: 6.00 Build 0)  -->
<svg version="1.1" id="Capa_1" xmlns="http://www.w3.org/2000/svg" xmlns:xlink="http://www.w3.org/1999/xlink" x="0px" y="0px"
	 viewBox="-49 141 512 512" style="enable-background:new -49 141 512 512;" xml:space="preserve">
<g>
	<g>
		<path style="fill:#F2C28D;" d="M213.103,290.987c-0.623,0-4.192,0.035-25.225,0.311l-0.82,139.953h52.09l-0.82-139.953
			C217.295,291.022,213.726,290.987,213.103,290.987z"/>
		<polygon style="fill:#FFFFFF;" points="187.635,431.252 175.541,322.552 187.671,313.583 213.103,331.838 238.535,313.583 
			250.665,322.552 238.571,431.252 		"/>
		<path style="fill:#61554E;" d="M213.103,431.194l-30.499-114.116l-7.063,5.474l-40.124,18.123
			c-12.889,4.227-21.481,16.146-21.481,29.66v60.916H312.27v-60.916c0-13.513-8.591-25.432-21.481-29.66l-40.124-18.123
			l-7.063-5.474L213.103,431.194z"/>
		<polygon style="fill:#B82922;" points="207.035,348.931 205.086,331.259 212.49,331.631 213.103,331.6 213.716,331.631 
			221.12,331.259 219.171,348.931 		"/>
		<polygon style="fill:#F6F6F6;" points="197.178,348.931 177.184,320.034 182.604,317.078 187.671,313.583 213.103,331.838 		"/>
		<polygon style="fill:#F6F6F6;" points="229.025,348.931 249.022,320.034 243.602,317.078 238.535,313.583 213.103,331.838 		"/>
		<polygon style="fill:#C92D25;" points="213.103,413.541 202.507,409.595 207.035,348.931 219.171,348.931 223.699,409.595 		"/>
		<polygon style="fill:#A18D81;" points="213.103,411.865 182.604,317.078 182.604,317.078 158.156,330.405 163.912,352.275 
			177.411,350.99 166.274,359.081 213.089,431.252 213.103,431.151 213.116,431.252 259.932,359.081 248.794,350.99 
			262.294,352.275 268.05,330.405 243.602,317.078 243.602,317.078 		"/>
		<path style="fill:#FFD2A1;" d="M263.265,232.392c-0.897-0.148-1.802-0.022-2.69,0.309v-21.536
			c0-17.749-14.389-32.137-32.14-32.137h-30.694c-17.749,0-32.139,14.388-32.139,32.137v21.536
			c-0.889-0.331-1.794-0.457-2.691-0.309c-4.73,0.771-5.526,8.381-4.142,16.918c1.116,6.923,2.68,12.272,6.45,13.696
			c0.883,0.344,1.808,0.459,2.691,0.306c0.273-0.049,0.53-0.153,0.793-0.241c2.089,9.83,4.859,17.607,8.4,22.805
			c4.192,6.155,7.424,10.782,10.426,14.265c6.808,7.892,12.43,9.822,25.334,9.822c0.06,0,0.123,0,0.183,0c0.014,0,0.027,0,0.044,0
			c0.013,0,0.027,0,0.041,0c0.06,0,0.123,0,0.183,0c14.465,0,16.967-0.123,25.337-9.822c3-3.483,6.232-8.11,10.423-14.265
			c3.541-5.198,6.314-12.975,8.4-22.805c0.263,0.087,0.52,0.192,0.793,0.241c0.884,0.153,1.808,0.038,2.694-0.306
			c3.768-1.425,5.332-6.773,6.448-13.696C268.794,240.773,267.995,233.163,263.265,232.392z"/>
		<path style="fill:#3C3C3B;" d="M213.089,170.265c-0.017,0-0.03,0-0.044,0c-20.511,0-30.764,3.524-41.02,14.401
			c-7.091,7.52-10.998,17.539-10.615,27.882l1.501,19.844c2.576-0.421,5.231,1.269,7.344,4.306v-22.996
			c0-10.076,8.154-18.23,18.23-18.23h49.208c10.076,0,18.227,8.154,18.227,18.23v22.996c2.116-3.037,4.769-4.728,7.344-4.306
			l1.501-19.844c0.382-10.344-3.525-20.363-10.615-27.882c-10.254-10.877-20.511-14.401-41.021-14.401
			C213.116,170.265,213.103,170.265,213.089,170.265z"/>
		<path style="fill:#3C3C3B;" d="M262.77,216.401c-28.347-0.659-60.528,5.925-86.1-12.474c-9.794-5.485-2.748-15.291-2.748-15.291
			h76.91L262.77,216.401z"/>
	</g>
	<rect x="89.036" y="448.24" style="fill:#E8B97F;" width="248.133" height="198.701"/>
	<rect x="120.594" y="479.801" style="fill:#D4A974;" width="185.013" height="167.141"/>
	<rect x="89.036" y="448.24" style="opacity:0.1;fill:#1D1D1B;" width="248.133" height="21.541"/>
	<rect x="72.204" y="429.256" style="fill:#F5C386;" width="281.798" height="28.749"/>
	<g>
		<path style="fill:#3C3C3B;" d="M264.785,429.256h-5.6v-31.683c0-10.153-2.887-20.043-8.348-28.601l-27.412-42.963l4.719-3.013
			l27.412,42.963c6.037,9.461,9.228,20.393,9.228,31.615V429.256z"/>
		<path style="fill:#3C3C3B;" d="M237.74,329.624c2.073,3.308,1.069,7.67-2.237,9.742l0,0c-3.309,2.07-7.67,1.072-9.74-2.237
			l-7.973-12.723c-2.073-3.308-1.072-7.67,2.234-9.742l0,0c3.309-2.073,7.67-1.072,9.74,2.237L237.74,329.624z"/>
	</g>
</g>
</svg>
